<mxfile host="app.diagrams.net" modified="2023-06-19T06:30:39.260Z" agent="Mozilla/5.0 (Macintosh; Intel Mac OS X 10_15_7) AppleWebKit/537.36 (KHTML, like Gecko) Chrome/114.0.0.0 Safari/537.36" version="21.4.0" etag="V1uMi_rGojrQ6F0sP3Pb" type="github">
  <diagram name="Page-1" id="IjNIwzbpweKARdNruQKp">
    <mxGraphModel>
      <root>
        <mxCell id="0" />
        <mxCell id="1" parent="0" />
      </root>
    </mxGraphModel>
  </diagram>
</mxfile>
